# xmcd CD database file
# Copyright (C) 1993-1998 Ti Kan
# 
# Track frame offsets:
#     183
#     13400
#     27530
#     38650
#     49638
#     65588
#     78068
#     87783
#     101725
#     112200
#     125023
#     136063
#     147230
# 
# Disc length: 2135 seconds
# 
# Revision: 2
# Processed by: cddbd v1.4b41PL1 Copyright (c) Steve Scherf et al.
# Submitted via: DiscPlay 4.0.4
# 
DISCID=b208550d
DTITLE=Leon Redbone - Sugar
DYEAR=1900
DGENRE=
TTITLE0=Ghost Of The St. Louis Blues
TTITLE1=Roll Along Kentucky Moon
TTITLE2=Right Or Wrong
TTITLE3=Laughin' Blues
TTITLE4=Breeze
TTITLE5=The Whistling Colonel
TTITLE6=Sugar
TTITLE7=Pretty Baby
TTITLE8=When I Take My Sugar To Tea
TTITLE9=What You Want Me To Do
TTITLE10=Messin' Around
TTITLE11=So, Relax
TTITLE12=14Th St. Blues
EXTD=
EXTT0=
EXTT1=
EXTT2=
EXTT3=
EXTT4=
EXTT5=
EXTT6=
EXTT7=
EXTT8=
EXTT9=
EXTT10=
EXTT11=
EXTT12=
PLAYORDER=
